<?xml version="1.0" encoding="UTF-8"?>
<svg id="Layer_1" xmlns="http://www.w3.org/2000/svg" version="1.1" viewBox="0 0 1000 500">
  <!-- Generator: Adobe Illustrator 29.5.0, SVG Export Plug-In . SVG Version: 2.1.0 Build 137)  -->
  <defs>
    <style>
      .st0, .st1 {
        fill: #fff;
      }

      .st1 {
        fill-rule: evenodd;
      }
    </style>
  </defs>
  <path class="st0" d="M139,309.7c0,1.2-1.3,2.8-2.5,2.8s-1.1-.2-1.7-.8c-9.9-8.2-21.8-12.8-35.4-12.8-30.6,0-55.3,24.9-55.3,55.5s24.7,55.2,55.3,55.2,25.4-4.8,35.4-12.7c.6-.5,1.1-.7,1.7-.7,1.3,0,2.5,1.6,2.5,2.8s-.4,1.2-1.2,1.7c-10.8,8.6-23.5,13.8-38.4,13.8-33.3,0-60.1-26.9-60.1-60.1s26.8-60.4,60.1-60.4,27.6,5.4,38.4,14c.8.6,1.2,1.2,1.2,1.8Z"/>
  <g>
    <path class="st0" d="M205.1,294c33.1,0,60.2,27.1,60.2,60.2s-27.2,60.1-60.2,60.1-60.1-26.8-60.1-60.1,26.8-60.2,60.1-60.2ZM205.1,409.5c30.4,0,55.5-24.9,55.5-55.3s-25-55.5-55.5-55.5-55.3,25-55.3,55.5,24.9,55.3,55.3,55.3Z"/>
    <path class="st0" d="M379.7,297.4c0-1.5.7-2.2,2.2-2.2s2.2.7,2.2,2.2v117c-.2,1.2-.9,1.7-2.1,1.7s-1.7-.4-2.2-1l-87.5-113.2v108.8c0,1.5-.7,2.2-2.2,2.2s-2.4-.7-2.4-2.2v-115.7c0-1.5.6-2.2,1.7-2.2s1.3.2,1.9.8l88.3,113.4v-109.6Z"/>
    <path class="st0" d="M408.2,391c.7,0,1.3.7,1.9,1.7,7.2,11,18.9,18.1,33.6,18.1s35.8-8,35.8-29.9c0-31.4-68.3-19.6-68.3-57.2s14.9-31.1,33.7-31.1,22.4,4.4,31,14.3c.7.9.7,1.2.7,1.8,0,1-.8,2-1.7,2s-1.3-.5-2.5-1.7c-8-7.8-15.5-11.9-27.6-11.9-17.5,0-29.7,10.9-29.7,26.6,0,32.7,68.6,21.6,68.6,57.2s-18.9,34.6-40.1,34.6-27.7-5.4-36.6-19.7c-.6-.9-1-1.2-1-2.1,0-1.5.6-2.5,2.1-2.5Z"/>
    <path class="st0" d="M506.2,366.9c0,24.3,19.3,43.6,43.6,43.6s43.6-19.3,43.6-43.6v-69.4c0-1.5.8-2.2,2.4-2.2s2.2.7,2.2,2.2v70.1c-.3,26.3-21.6,47.4-48.2,47.4s-48-21.4-48-48v-69.4c0-1.5.7-2.2,2.2-2.2s2.2.7,2.2,2.2v69.4Z"/>
    <path class="st0" d="M691.5,408.6c1.6,0,2.4.7,2.4,2.2s-.8,2.2-2.4,2.2h-65.6c-1,0-1.7-.2-1.9-.6-.3-.3-.5-.9-.5-1.6v-113.4c0-1.5.8-2.2,2.4-2.2s2.2.7,2.2,2.2v111.1h63.4Z"/>
  </g>
  <g>
    <path class="st0" d="M768.2,295.2c1.7,0,2.5.7,2.5,2.2s-.9,2.2-2.5,2.2h-35.8v111.1c0,1.5-.7,2.2-2.2,2.2s-2.2-.7-2.2-2.2v-111.1h-36.9c-1.5,0-2.2-.7-2.2-2.2s.7-2.2,2.2-2.2h77.2Z"/>
    <path class="st0" d="M867.2,295.2c1.6,0,2.4.7,2.4,2.2s-.8,2.2-2.4,2.2h-74.5v65.2h61c1.7,0,2.5.8,2.5,2.4s-.9,2.2-2.5,2.2h-61v39.2h76.3c1.6,0,2.4.7,2.4,2.2s-.8,2.2-2.4,2.2h-79.3c-1.2,0-1.6-1.2-1.6-2.2v-113.4c0-2.6,1.7-2.2,2.4-2.2h76.7Z"/>
    <path class="st0" d="M959.8,296c.5-.7,1-1.1,1.7-1.1,1.2,0,2.5,1.1,2.5,2.3s-.2,1-.5,1.5l-37.7,55.3,37.7,55.3c.3.6.5,1,.5,1.4,0,1-1,2.2-2.5,2.2s-1.3-.3-1.7-1l-36.6-53.9-36.5,53.9c-.6.6-1.2,1-1.7,1-1,0-2.6-1-2.6-2.1s.2-1,.6-1.5l37.4-55.3-37.4-55.3c-.4-.6-.6-1-.6-1.5,0-1.2,1.7-2.3,2.7-2.3s1.1.4,1.7,1.1l36.5,53.9,36.6-53.9Z"/>
  </g>
  <path class="st1" d="M501.7,68.2c39.7,0,71.8,32.1,71.8,71.8s-32.1,71.8-71.8,71.8-71.8-32.1-71.8-71.8,32.1-71.8,71.8-71.8M540.4,48c.2,2.8.6,5.9.9,8.7l.7,6.5c0,.6.2,1.7.2,2.2-1.3-.2-5.2-2.4-6.3-2.5-.7.9-1,2.3-1.5,3.4l-1.4,3.4c2.7,1.1,6.5,3.2,9,4.7,2,1.2,3.7,2.4,5.5,3.7,1.8,1.3,4.7,3.6,6.3,5.2.3.3.9.8,1.2,1.1.8-.4,4.1-4.2,5.2-5.1-.4-.8-3.5-3.5-4.5-4.6-.2-.3-.2,0-.2-.4.6,0,1.5-.4,2.1-.6,2.1-.6,13.6-4.1,14.6-4.2-.1,1.1-.9,3-1.2,4.2l-2.4,8.4c-.4,1.2-.7,3.2-1.3,4.2-1-.4-3.9-4.2-4.9-4.7-.9,1.1-4.7,4.4-5.1,5.2.4.6,2.5,2.8,3.3,3.7,1.8,2.2,3.3,4.2,5.1,6.7,1.2,1.8,2.5,3.9,3.6,5.8l.8,1.5c.3.5.5,1.1.8,1.6.4.8,1.3,2.5,1.5,3.2,1.8-.4,4.9-2.2,6.8-2.7,0-.5-.4-1.1-.6-1.6-.4-1-1.8-4-1.9-4.7.5,0,1.5.2,2.1.2,3.6.4,7.2.8,10.8,1.3,1.3.2,3.1.5,4.4.5,0,.3-.4.6-.6.9l-2,2.6c-1.9,2.2-3.6,4.6-5.6,6.8-.4.4-2.3,3.2-2.8,3.4-.3-.5-.5-1-.7-1.5-.2-.6-.4-1-.7-1.6-.2-.6-1-2.7-1.3-3.1-.8.2-5.9,2.4-6.8,2.7,0,.4.4,1.1.5,1.4.2.5.3.9.5,1.4,1,2.4,2,6.6,2.5,9.2,1.3,6.4,1.1,7.7,1.6,14h7.4s0-6.8,0-6.8c.7.2,10.1,5.6,11.4,6.3.6.3,3.3,1.9,3.9,2.1v.2c-.6.2-3.3,1.7-3.9,2.1-1.7.9-4,2.1-5.7,3.2-1.2.8-2.6,1.4-3.9,2.1-.4.2-1.5.9-1.8,1v-6.8c0,0-7.4,0-7.4,0-.2,2.7-.2,5.1-.5,7.4-.8,6-1.8,10.5-3.7,16.2l-.8,2.2c0,.3-.2.5-.3.7.5.4,1.2.5,1.7.8l5.1,2.1,2.3-5.4c.1-.3.2-.5.4-.7l9.6,12.1c.3.3,1.2,1.4,1.2,1.7-3,.2-5.8.6-8.7.9-1.2.1-7.6.9-8.7.9.2-1.2,1.4-3.3,1.9-4.6.2-.5.6-1.2.6-1.6-.6-.4-4.1-1.8-5-2.2-.5-.2-1.2-.5-1.7-.7-.8,2.1-2,4.2-3,6.1-2.7,4.9-5.9,9.3-9.5,13.5-.4.4-.7.8-1.1,1.2-.3.3-.8.8-1,1.2.3.5,2,2.1,2.6,2.6.8.8,1.8,1.7,2.5,2.5,1-.5,4-4.3,4.9-4.7.3.6,4.8,16,4.9,16.8-1.1-.1-3-.9-4.2-1.2-1.5-.4-11.6-3.5-12.6-3.6,0-.4,0-.2.2-.4.1-.1.2-.2.3-.3.9-.9,3.9-3.6,4.2-4.3-1-.9-4.4-4.7-5.2-5.1-.9.6-1.6,1.5-2.5,2.2-.5.4-.9.7-1.3,1.1-2.2,1.8-4.2,3.3-6.7,5-2.3,1.6-4.9,3.1-7.4,4.4l-3.2,1.5c-.5.2-1.1.6-1.6.7.1.5.5,1.3.7,1.8.6,1.5,1.6,3.6,2,5,.6,0,2.6-1,3.3-1.3.6-.3,2.7-1.2,3.1-1.2,0,1.1-.3,3.1-.5,4.3-.2,1.5-.3,2.8-.5,4.3-.2,1.8-.9,7.1-1,8.7-.4,0-1-.7-1.4-.9-.2-.2-.2-.1-.4-.3l-5.1-4.2c-1.7-1.2-3.1-2.6-4.7-3.8-.2-.1-.2-.1-.4-.3-.4-.3-1.4-1-1.6-1.4.5-.3,1-.5,1.5-.7.9-.4,4.1-1.5,4.6-1.9-.2-.8-1-2.5-1.3-3.4-.1-.3-.3-.6-.4-.8l-1-2.5c-.5,0-1.1.4-1.4.5-3.5,1.3-7,2.2-10.6,3-6.4,1.3-7.9,1.2-13.9,1.6v7.4s6.8,0,6.8,0c0,.3-.7,1.4-1,1.9-.4.6-.7,1.3-1.1,1.9-.4.7-.7,1.3-1.1,1.9-1.3,2.1-3.5,6.3-4.7,8.6-.2.3-.4.6-.5.9h-.2c-.1-.5-.7-1.4-1-2-.7-1.3-7.2-12.8-7.3-13.4h6.8s0-7.4,0-7.4c-2.6-.2-5.1-.2-7.4-.5-6-.8-12-2.1-17.7-4.3-.3-.1-.4-.2-.7-.3-.3,0-.5-.2-.7-.3l-2.9,6.8c.8.5,3.6,1.5,4.7,2,.3.1.4.2.8.3.3.1.6.2.7.4-.3.4-2.8,2.3-3.4,2.8l-7.8,6.2c-.2.2-.6.5-.8.7-.3.3-1.4,1.2-1.7,1.2-.1-1.6-.4-3-.5-4.4-.1-1.4-.3-2.9-.5-4.3-.1-1.2-.9-7.6-.9-8.7,1.2.2,3.3,1.4,4.6,1.9.5.2,1.2.6,1.6.6.7-.9,1-2.3,1.5-3.4l1.4-3.4c-2.1-.8-4.2-2-6.1-3-1.1-.6-1.9-1.1-2.9-1.7-2-1.2-3.7-2.4-5.5-3.7l-3.9-3c-.8-.7-3-2.8-3.6-3.2-.5.3-2.1,2-2.6,2.6-.8.8-1.7,1.8-2.5,2.5.5,1,4.3,4,4.7,4.9-1.1.5-3,.9-4.2,1.3-1.4.4-11.6,3.5-12.6,3.6.2-1.4,4.6-15.3,4.8-16.8.4,0,.2,0,.4.2,1.1,1,3.8,4.1,4.6,4.5.9-1,4.7-4.4,5.1-5.2-.3-.4-.8-.9-1.1-1.3-.4-.4-.8-.8-1.1-1.2-.4-.4-.7-.8-1.1-1.3-1.8-2.2-3.3-4.2-5-6.7-2.1-3-3.5-5.8-5.1-8.9-.3-.6-.5-1-.8-1.6-.2-.5-.6-1.1-.7-1.6-1.1.3-4,1.6-5.2,2.1-.6.3-1,.5-1.7.7.2,1.2,2.3,5.2,2.5,6.4-.6,0-1.6-.2-2.2-.2l-6.5-.7c-1.8-.2-7.1-.9-8.7-1,0-.4,2.5-3.3,2.6-3.5,1-1.1,1.9-2.2,2.8-3.4.4-.6.9-1.1,1.4-1.7l2.5-3c.4-.5,1.2-1.8,1.7-2,.3.5.5,1,.7,1.5.3.8,1.7,4.2,1.9,4.6.5-.1,1.2-.4,1.7-.7l5-2.1c0-.4-.4-1.1-.5-1.4-1.3-3.5-2.2-7-3-10.6-.4-2.1-.8-4.4-1.1-6.7-.1-1.2-.3-2.4-.3-3.6,0-1.1-.1-2.5-.2-3.7h-7.4s0,6.8,0,6.8c-.3,0-1.5-.7-1.9-1l-5.7-3.2c-.7-.4-1.3-.7-1.9-1.1-1.4-.7-2.6-1.4-3.9-2.1-.5-.3-1.4-.9-1.9-1v-.2c.4-.1.6-.3.9-.5,2.3-1.2,4.5-2.5,6.8-3.7l5.7-3.2c.4-.3,1.6-.9,1.9-1v6.8s7.5,0,7.5,0c.3-4.4.4-6.8,1-11,.6-3.9,1.7-7.5,2.7-11.2.2-.6.4-1,.5-1.5.2-.5.3-1,.5-1.5.2-.5.3-1,.6-1.4l-.4-.2c-.2,0-.2,0-.4-.2l-2.5-1.1c-1.1-.5-2.3-1-3.4-1.4l-2.3,5.4c0,.2-.1.3-.2.4l-.2.4-5.1-6.4c-.2-.2-.2-.3-.3-.5l-4.1-5.2c-.3-.4-1.2-1.4-1.3-1.7,2.8-.2,5.9-.6,8.7-.9l6.5-.7c.6,0,1.7-.2,2.2-.2-.2,1.3-2.4,5.2-2.5,6.3.6.4,4.1,1.8,5,2.2.5.2,1.2.5,1.7.7.8-2,2-4.2,3-6.1.6-1.1,1.1-1.9,1.7-2.9,2-3.3,4.2-6.4,6.7-9.3l2.2-2.4c.3-.3.8-.9,1.1-1.2-.4-.8-4.2-4.1-5.1-5.2-.6.3-3.4,3.3-4.3,4.2-.3.3-.4.5-.7.5-.1-.9-2.1-7.4-2.4-8.4-.4-1.4-.8-2.8-1.2-4.2-.3-1.2-1-3.1-1.2-4.2.8.1,16.2,4.6,16.8,4.9-.2.6-1.8,1.9-2.3,2.5-.4.4-2.2,2-2.4,2.5,1.1.9,4.4,4.7,5.2,5.1.6-.4,2.8-2.6,3.7-3.3,2.2-1.8,4.2-3.3,6.7-5.1,1.8-1.2,3.9-2.5,5.8-3.6.3-.1.5-.2.7-.4,1-.6,4.7-2.5,5.6-2.7-.3-1.1-1.6-3.9-2-5.1-.3-.7-.5-1.1-.7-1.7-.6,0-1.1.4-1.6.6-.5.2-1.1.4-1.6.6-.6.3-2.7,1.2-3.2,1.2,0-.5.2-1.5.2-2.1.4-3.6.8-7.2,1.3-10.8.2-1.3.5-3.1.5-4.4.5,0,4.6,3.6,5.1,4,.5.4,1.1,1,1.7,1.4,1.9,1.3,3.3,2.8,5.2,4.1.4.3,1.5,1.1,1.6,1.4-1.4.9-5.1,1.8-6.2,2.6.2.8,2.2,5.6,2.7,6.8.5,0,2.3-.8,2.8-1,2.4-1,6.6-2,9.2-2.5,6.3-1.2,7.7-1.1,14-1.6v-7.4s-6.8,0-6.8,0c.1-.5,1.6-3,2-3.8l2.1-3.9c.6-1.2,4-7,4.2-7.7h.2c.1.4.3.6.5.9.2.4.3.6.5,1,1.4,2.5,2.7,5.2,4.2,7.7.4.7,3,5.3,3.1,5.8h-6.8s0,7.5,0,7.5c2.7.2,5.1.2,7.5.5,6,.8,12,2.1,17.7,4.3.3.1.4.2.7.3.3,0,.5.2.7.3l.2-.4c0-.2,0-.2.2-.4l2.5-6c-.8-.5-3.5-1.5-4.6-2l-1.6-.7c.3-.4,2.7-2.2,3.4-2.7,1.7-1.4,10-8.1,10.4-8.1Z"/>
  <path class="st1" d="M498,152.6c3.4-.4,7.2-1,10.6-1.3.8,0,.9-.2,1.4-.6.4-.4.6-.7.9-1.1.3-.3.6-.6.9-1,1-1.1,1.8-1.9,3.1-2.9.9-.6,1.4-.5,2.6.5.8.6,1.3,1.3,1.9,2.1,1,1.3,2.6,3.2,3.9,4,1,.5,1.6,0,2.6-.9,1.6-1.2,3.5-5.2,6-5.9,1.2-.3,2.7,1.7,3.4,2.5.3.4.6.7.9,1.1,4,4.9,4.4,4.3,8.4-.5.9-1.1,1.8-2.2,3-2.9.6-.4.9-.3,1.5,0,1.7.9,2.7,2.6,3.9,4.1.7.8,1.2,1.4,1.9,2,1.1.8,1.5,1,2.7.2.4-.3.7-.7,1-1l8.3-9.7c.7-1.2.7-1.5,0-2.8-1.1-1.8-2.8-2.3-5.5-2.4-2.5,0-5.2.1-7.8.1h-39.8c-2.5,0-5.6.2-8,0-3.6-.3-3.1-2.9,0-2.9,18.5-.1,37.4.2,55.8,0-.3-.9-3.4-4-4-4.6-2-1.9-4.2-1.2-7.3-1.2h-52.3c-.2-.3-.3-.8-.5-1.2-.5-1.1-1.2-2.5-1.9-3.6-1-1.6-3.4-4.6-4.8-5.9-2-1.8-3.7-3.1-6.2-4.6-6.2-3.7-14.9-5.7-23.4-3.9-25.6,5.7-32.5,35-18.1,52.8,2,2.5,4.6,4.7,7.7,6.6,10.3,6.4,23.9,6.1,33.7.2,2.9-1.8,3.8-2.6,6.1-4.6l3.4-3.8c2.2-2.9,2.5-4,3.8-7"/>
</svg>